<svg width="2029" height="783" viewBox="0 0 2029 783" fill="none" xmlns="http://www.w3.org/2000/svg">
<g clip-path="url(#clip0_341_19679)">
<path d="M691.94 667.057L704.669 667.066L683.963 764.23H669.209L636.431 685.668L619.552 764.23H606.824L627.504 667.066L643.049 667.079L674.927 745.597L691.94 667.057Z" fill="#1A1A1A"/>
<path d="M728.261 720.245L719.024 764.238L705.881 764.231L726.583 667.067H793.847L791.272 678.7H737.117L730.884 708.612H778.556L775.978 720.245H728.261Z" fill="#1A1A1A"/>
<path d="M796.957 678.699L799.526 667.066H878.428L875.854 678.699H842.972L824.836 764.23H811.695L829.828 678.699H796.957Z" fill="#1A1A1A"/>
<path d="M927.818 755.839C935.397 755.839 941.669 752.547 946.632 745.959C950.238 741.176 952.766 735.451 954.211 728.77C954.478 727.513 954.706 726.179 954.885 724.779C955.063 723.38 955.158 721.872 955.158 720.244C955.158 714.926 954.116 710.729 952.043 707.663C949.338 703.695 945.097 701.705 939.322 701.705C931.833 701.705 925.609 704.999 920.65 711.588C917.039 716.454 914.509 722.188 913.071 728.77C912.436 731.662 912.124 734.547 912.124 737.432C912.124 742.757 913.157 746.956 915.235 750.022C917.849 753.902 922.045 755.839 927.818 755.839ZM941.49 691.424C950.238 691.424 956.917 694.178 961.516 699.675C965.58 704.547 967.605 711 967.605 719.029C967.605 722.095 967.248 725.344 966.527 728.77C964.359 738.881 959.895 747.406 953.128 754.347C945.458 762.198 936.297 766.125 925.654 766.125C916.901 766.125 910.272 763.418 905.761 758.008C901.702 753.133 899.672 746.727 899.672 738.789C899.672 735.723 900.029 732.381 900.755 728.77C902.831 718.672 907.251 710.146 914.018 703.193C921.683 695.349 930.838 691.424 941.49 691.424Z" fill="#1A1A1A"/>
<path d="M1012.68 703.329L999.685 764.23H987.787L1000.77 703.336L978.166 703.329L980.194 693.455H1037.3L1035.27 703.329H1012.68Z" fill="#1A1A1A"/>
<path d="M1102.88 722.957C1107.55 722.957 1111.46 722.095 1114.6 720.366C1117.74 718.645 1119.67 716.011 1120.39 712.463C1120.66 711.195 1120.8 710.155 1120.8 709.334C1120.8 706.25 1119.67 704.14 1117.42 703.007C1115.17 701.872 1112.16 701.298 1108.39 701.298C1103.08 701.298 1098.78 702.338 1095.5 704.414C1092.22 706.494 1090.08 709.782 1089.09 714.295H1077.9C1078.98 708.968 1081.46 704.461 1085.34 700.758C1091.47 694.804 1100.23 691.824 1111.6 691.824C1118.54 691.824 1123.89 693.369 1127.63 696.446C1131.37 699.525 1133.25 703.286 1133.25 707.722C1133.25 709.083 1133.16 710.08 1132.98 710.713C1131.8 716.239 1129.32 720.316 1125.53 722.943C1123.28 724.571 1120.12 725.747 1116.06 726.473C1120.12 727.106 1123.28 728.318 1125.53 730.111C1128.33 732.365 1129.73 735.51 1129.73 739.558C1129.73 740.726 1129.59 742.076 1129.32 743.598C1127.79 750.7 1123.73 756.321 1117.14 760.463C1111.1 764.237 1103.92 766.125 1095.62 766.125C1085.79 766.125 1078.75 763.914 1074.51 759.493C1071.45 756.337 1069.91 752.145 1069.91 746.906C1069.91 746.187 1069.96 745.418 1070.05 744.609C1070.14 743.799 1070.32 742.714 1070.59 741.357H1081.82C1081.64 741.99 1081.5 742.757 1081.41 743.661C1081.33 744.563 1081.28 745.325 1081.28 745.959C1081.28 749.66 1082.65 752.346 1085.39 754.01C1088.13 755.681 1092.15 756.515 1097.46 756.515C1102.49 756.515 1106.54 755.661 1109.59 753.96C1113.46 751.808 1115.88 748.398 1116.87 743.725C1117.14 742.47 1117.28 741.351 1117.28 740.36C1117.28 736.772 1115.57 734.31 1112.16 732.962C1109.74 731.978 1105.79 731.481 1100.31 731.481H1091.43L1093.32 722.957H1102.88Z" fill="#1A1A1A"/>
<path d="M1158.99 723.26L1176.37 723.222C1181.57 723.222 1185.44 722.432 1187.95 720.854C1190.47 719.283 1192.17 716.325 1193.07 711.991C1193.25 710.729 1193.34 709.875 1193.34 709.42C1193.34 707.254 1192.41 705.696 1190.57 704.749C1188.72 703.801 1185.46 703.329 1180.78 703.329L1163.22 703.342L1158.99 723.26ZM1152.39 754.361L1173.74 754.347C1179.15 754.347 1183.11 753.495 1185.63 751.779C1188.15 750.063 1189.82 747.178 1190.63 743.117C1190.9 742.031 1191.04 741.043 1191.04 740.137C1191.04 737.525 1189.89 735.63 1187.59 734.455C1185.29 733.283 1181.53 732.695 1176.31 732.695L1156.98 732.709L1152.39 754.361ZM1153.28 693.455H1188.06C1194.29 693.455 1198.89 694.719 1201.87 697.244C1204.48 699.503 1205.79 702.662 1205.79 706.723C1205.79 707.446 1205.73 708.26 1205.59 709.162C1205.45 710.06 1205.34 710.786 1205.25 711.322C1204.62 714.311 1203.31 717.015 1201.32 719.455C1198.62 722.704 1194.87 725.182 1190.09 726.896C1193.88 727.979 1196.63 729.107 1198.35 730.285C1201.5 732.537 1203.08 735.644 1203.08 739.614C1203.08 740.786 1202.95 742.047 1202.68 743.404C1201.32 749.626 1198.39 754.49 1193.88 758.008C1188.56 762.157 1181.34 764.23 1172.23 764.23H1138.26L1153.28 693.455Z" fill="#1A1A1A"/>
<path d="M1269.93 723.222C1270.02 722.232 1270.13 721.287 1270.27 720.38C1270.41 719.485 1270.47 718.485 1270.47 717.402C1270.47 712.718 1269.34 709.107 1267.09 706.581C1264.47 703.601 1260.37 702.115 1254.77 702.115C1249.36 702.115 1244.29 704.214 1239.55 708.403C1234.81 712.602 1231.81 717.538 1230.55 723.222H1269.93ZM1277.37 742.032C1276.56 744.565 1274.94 747.452 1272.5 750.694C1269.07 755.207 1265.1 758.778 1260.59 761.389C1258.06 762.832 1255.67 763.915 1253.42 764.638C1249.81 765.717 1245.48 766.262 1240.43 766.262C1232.31 766.262 1226.08 763.958 1221.75 759.356C1217.42 754.757 1215.26 748.578 1215.26 740.82C1215.26 738.2 1215.33 736.4 1215.46 735.403C1215.6 734.41 1215.89 732.882 1216.34 730.804C1218.78 719.254 1223.47 709.961 1230.41 702.927C1237.99 695.255 1247.38 691.425 1258.56 691.425C1266.41 691.425 1272.3 693.704 1276.22 698.256C1280.15 702.814 1282.11 709.285 1282.11 717.676C1282.11 721.832 1281.52 726.833 1280.35 732.696H1228.65C1228.02 735.317 1227.71 737.935 1227.71 740.547C1227.71 750.832 1233.21 755.976 1244.22 755.976C1249.27 755.976 1254.01 754.305 1258.43 750.968C1262.22 748.083 1264.56 745.105 1265.46 742.032H1277.37Z" fill="#1A1A1A"/>
<path d="M1320.49 722.957C1325.16 722.957 1329.07 722.095 1332.21 720.366C1335.36 718.645 1337.29 716.011 1338.01 712.463C1338.27 711.195 1338.41 710.155 1338.41 709.334C1338.41 706.25 1337.29 704.14 1335.04 703.007C1332.79 701.872 1329.78 701.298 1326 701.298C1320.69 701.298 1316.4 702.338 1313.11 704.414C1309.84 706.494 1307.7 709.782 1306.71 714.295H1295.51C1296.59 708.968 1299.08 704.461 1302.95 700.758C1309.09 694.804 1317.84 691.824 1329.21 691.824C1336.15 691.824 1341.5 693.369 1345.25 696.446C1348.99 699.525 1350.86 703.286 1350.86 707.722C1350.86 709.083 1350.77 710.08 1350.59 710.713C1349.41 716.239 1346.94 720.316 1343.15 722.943C1340.89 724.571 1337.74 725.747 1333.68 726.473C1337.74 727.106 1340.89 728.318 1343.15 730.111C1345.94 732.365 1347.34 735.51 1347.34 739.558C1347.34 740.726 1347.21 742.076 1346.94 743.598C1345.4 750.7 1341.34 756.321 1334.76 760.463C1328.71 764.237 1321.54 766.125 1313.24 766.125C1303.4 766.125 1296.37 763.914 1292.13 759.493C1289.06 756.337 1287.53 752.145 1287.53 746.906C1287.53 746.187 1287.57 745.418 1287.66 744.609C1287.76 743.799 1287.93 742.714 1288.2 741.357H1299.43C1299.26 741.99 1299.12 742.757 1299.03 743.661C1298.94 744.563 1298.9 745.325 1298.9 745.959C1298.9 749.66 1300.26 752.346 1303 754.01C1305.75 755.681 1309.77 756.515 1315.07 756.515C1320.11 756.515 1324.15 755.661 1327.21 753.96C1331.07 751.808 1333.5 748.398 1334.49 743.725C1334.76 742.47 1334.89 741.351 1334.89 740.36C1334.89 736.772 1333.19 734.31 1329.78 732.962C1327.36 731.978 1323.41 731.481 1317.93 731.481H1309.04L1310.93 722.957H1320.49Z" fill="#1A1A1A"/>
<path d="M1397.43 754.347L1408.2 703.329H1380.82L1372.76 740.813C1371.95 744.335 1370.73 747.358 1369.12 749.884C1368.03 751.505 1366.73 752.997 1365.2 754.347H1397.43ZM1357.24 764.23L1353.53 782.387L1342.88 782.364L1348.83 754.347H1353.7C1354.87 753.809 1356.23 752.274 1357.76 749.746C1359.66 746.768 1360.92 743.799 1361.55 740.819L1371.56 693.455H1422.18L1409.33 754.347H1415.69L1409.77 782.371L1399.25 782.38L1402.95 764.23H1357.24Z" fill="#1A1A1A"/>
<path d="M1856.72 628.805H172.283V600.049H1856.72V628.805Z" fill="#1A1A1A"/>
<path d="M765.925 276.164H627.412L588.648 497.004H517.773L556.537 276.164H459.822L470.786 215.077H776.889L765.925 276.164Z" fill="#1A1A1A"/>
<path d="M984.119 215.077L934.785 497.004H863.912L814.573 342.727L787.949 497.004H717.076L766.806 215.077H839.635L888.189 359.176L913.641 215.077H984.119Z" fill="#1A1A1A"/>
<path d="M1645.67 276.164H1616.3L1606.12 344.292H1633.53C1647.36 344.292 1657.28 340.968 1663.28 334.309C1669.29 327.648 1672.29 318.841 1672.29 307.877C1672.29 286.734 1663.41 276.164 1645.67 276.164ZM1670.33 215.077C1700.09 215.077 1721.24 221.607 1733.77 234.653C1743.16 244.579 1747.86 257.11 1747.86 272.245C1747.86 277.468 1747.34 282.951 1746.3 288.692L1740.81 319.23C1737.68 336.204 1732.26 349.913 1724.57 360.345C1716.87 370.787 1708.32 378.23 1698.92 382.664L1734.55 497.004H1655.46L1622.57 391.67H1598.29L1582.23 497.004H1507.06L1556.78 215.077H1670.33Z" fill="#1A1A1A"/>
<path d="M1480.68 276.164H929.883V215.077H1491.64L1480.68 276.164Z" fill="#1A1A1A"/>
<path d="M1958.52 215.078L1926.8 394.018C1926.71 394.563 1926.59 395.049 1926.49 395.585H1847.52C1847.6 395.07 1847.62 394.532 1847.7 394.018L1879.43 215.078H1808.94L1777.22 395.592C1775.14 406.816 1774.09 417.122 1774.09 426.521C1774.09 447.664 1779.31 464.242 1789.75 476.251C1804.37 493.74 1830.61 502.488 1868.46 502.488C1906.31 502.488 1935.61 493.81 1956.37 476.443C1977.11 459.092 1990.76 432.142 1997.28 395.592L2029 215.078H1958.52Z" fill="#1A1A1A"/>
<path d="M1278.9 316.838L1248.08 497.004H1318.96L1349.77 316.838H1278.9Z" fill="#1A1A1A"/>
<path d="M1021.43 316.838L989.994 497.004H1060.86L1078.88 393.63H1183.03L1196 317.012L1021.43 316.838Z" fill="#1A1A1A"/>
<path d="M1406.71 428.869L1394.58 499.746H1465.46L1477.58 428.869H1406.71Z" fill="#1A1A1A"/>
<path d="M357.097 153.988L327.751 0.622757L256.34 153.988H357.097Z" fill="#1A1A1A"/>
<path d="M596.695 215.023H0L166.218 347.535L66.3852 561.938L268.947 429.428L435.164 561.938L394.135 347.535L596.695 215.023Z" fill="#1A1A1A"/>
</g>
<defs>
<clipPath id="clip0_341_19679">
<rect width="2029" height="781.766" fill="white" transform="translate(0 0.617188)"/>
</clipPath>
</defs>
</svg>
